<?xml version="1.0" encoding="UTF-8" standalone="no"?>
<svg
   xmlns:dc="http://purl.org/dc/elements/1.1/"
   xmlns:cc="http://creativecommons.org/ns#"
   xmlns:rdf="http://www.w3.org/1999/02/22-rdf-syntax-ns#"
   xmlns:svg="http://www.w3.org/2000/svg"
   xmlns="http://www.w3.org/2000/svg"
   version="1.1"
   id="svg7312"
   viewBox="0 0 49.87793 68.37891"
   height="19.298048mm"
   width="14.07666mm">
  <defs
     id="defs7314" />
  <metadata
     id="metadata7317">
    <rdf:RDF>
      <cc:Work
         rdf:about="">
        <dc:format>image/svg+xml</dc:format>
        <dc:type
           rdf:resource="http://purl.org/dc/dcmitype/StillImage" />
        <dc:title></dc:title>
      </cc:Work>
    </rdf:RDF>
  </metadata>
  <g
     transform="translate(-136.87012,-342.26211)"
     style="opacity:0.98000004"
     id="layer1">
    <g
       id="flowRoot7860"
       style="font-style:normal;font-variant:normal;font-weight:normal;font-stretch:normal;font-size:40px;line-height:125%;font-family:OpenSymbol;-inkscape-font-specification:OpenSymbol;letter-spacing:0px;word-spacing:0px;fill:#000000;fill-opacity:1;stroke:none;stroke-width:1px;stroke-linecap:butt;stroke-linejoin:miter;stroke-opacity:1">
      <path
         id="path7869"
         style="font-size:90px;fill:#ffffff;fill-opacity:1"
         d="m 136.87012,361.42227 8.08593,0 0,49.21875 -8.08593,0 0,-49.21875 z m 0,-19.16016 8.08593,0 0,10.23926 -8.08593,0 0,-10.23926 z" />
      <path
         id="path7871"
         style="font-size:90px;fill:#ffffff;fill-opacity:1"
         d="m 186.74805,342.26211 0,6.72363 -7.73438,0 q -4.35058,0 -6.06445,1.75782 -1.66992,1.75781 -1.66992,6.32812 l 0,4.35059 13.31543,0 0,6.28418 -13.31543,0 0,42.93457 -8.12989,0 0,-42.93457 -7.73437,0 0,-6.28418 7.73437,0 0,-3.42774 q 0,-8.21777 3.82325,-11.95312 3.82324,-3.7793 12.1289,-3.7793 l 7.64649,0 z" />
    </g>
  </g>
</svg>
