<?xml version="1.0" encoding="UTF-8" standalone="no"?>
<!-- Created with Inkscape (http://www.inkscape.org/) -->

<svg
   xmlns:dc="http://purl.org/dc/elements/1.1/"
   xmlns:cc="http://creativecommons.org/ns#"
   xmlns:rdf="http://www.w3.org/1999/02/22-rdf-syntax-ns#"
   xmlns:svg="http://www.w3.org/2000/svg"
   xmlns="http://www.w3.org/2000/svg"
   xmlns:sodipodi="http://sodipodi.sourceforge.net/DTD/sodipodi-0.dtd"
   xmlns:inkscape="http://www.inkscape.org/namespaces/inkscape"
   id="svg4198"
   version="1.1"
   inkscape:version="0.91 r13725"
   width="406.58789"
   height="407.5293"
   viewBox="0 0 406.58789 407.5293"
   sodipodi:docname="parametre.svg">
  <metadata
     id="metadata4204">
    <rdf:RDF>
      <cc:Work
         rdf:about="">
        <dc:format>image/svg+xml</dc:format>
        <dc:type
           rdf:resource="http://purl.org/dc/dcmitype/StillImage" />
        <dc:title></dc:title>
      </cc:Work>
    </rdf:RDF>
  </metadata>
  <defs
     id="defs4202" />
  <sodipodi:namedview
     pagecolor="#ffffff"
     bordercolor="#666666"
     borderopacity="1"
     objecttolerance="10"
     gridtolerance="10"
     guidetolerance="10"
     inkscape:pageopacity="0"
     inkscape:pageshadow="2"
     inkscape:window-width="1360"
     inkscape:window-height="681"
     id="namedview4200"
     showgrid="false"
     fit-margin-top="0"
     fit-margin-left="0"
     fit-margin-right="0"
     fit-margin-bottom="0"
     inkscape:zoom="1.0625"
     inkscape:cx="105.28689"
     inkscape:cy="197.6466"
     inkscape:window-x="0"
     inkscape:window-y="24"
     inkscape:window-maximized="1"
     inkscape:current-layer="svg4198" />
  <path
     style="fill:#ffffff;fill-opacity:1;fill-rule:evenodd;stroke:none;stroke-width:1px;stroke-linecap:butt;stroke-linejoin:miter;stroke-opacity:1"
     d="m 228.70508,0 -50.82226,0.470703 0.9414,49.882816 c 0,0 -23.42169,4.504678 -34.82422,8.941398 -11.40253,4.43672 -32,17.88281 -32,17.88281 L 78.117189,43.294921 41.41211,78.117187 77.175779,113.88281 c 0,0 -11.34291,17.00614 -16.4707,27.76368 -5.1278,10.75753 -9.41016,37.17773 -9.41016,37.17773 L 0,177.88281 l 0,51.29492 50.824219,0 c 0,1e-5 3.01562,22.57533 7.5293,33.41016 4.51368,10.83483 17.88086,32.4707 17.88086,32.4707 l -34.351559,34.35352 36.705069,35.76562 34.353521,-34.35351 c 0,0 13.16624,10.18333 24.4707,15.5293 11.30446,5.34597 41.41211,12.23437 41.41211,12.23437 l -0.9414,48.94141 50.82226,-0.47071 0.4707,-48.9414 c 0,0 26.17441,-6.16947 37.17774,-10.82227 11.00333,-4.6528 29.17578,-16 29.17578,-16 l 33.41211,33.41211 35.29297,-36.23633 -33.88086,-32.9414 c 0,0 14.22308,-21.76263 18.82226,-32.94141 4.59918,-11.17878 8.94141,-33.41016 8.94141,-33.41016 l 48.4707,0 0,-51.29492 -48.9414,0 c 0,0 -3.86941,-23.48457 -8.94141,-34.82422 -5.07199,-11.33966 -19.29297,-30.11718 -19.29297,-30.11718 L 365.17578,78.117187 328.94141,42.353515 294.58789,77.177727 c 0,0 -22.77326,-14.34906 -33.88281,-18.82421 -11.10955,-4.475148 -32,-8.470708 -32,-8.470708 L 228.70508,0 Z m -24.9414,90.335937 A 115.31235,115.78294 0 0 1 319.07618,206.11719 115.31235,115.78294 0 0 1 203.76368,321.90039 115.31235,115.78294 0 0 1 88.453129,206.11719 115.31235,115.78294 0 0 1 203.76368,90.335937 Z"
     id="path4208"
     inkscape:connector-curvature="0" />
</svg>
