<?xml version="1.0" encoding="UTF-8" standalone="no"?>
<!-- Created with Inkscape (http://www.inkscape.org/) -->

<svg
   xmlns:dc="http://purl.org/dc/elements/1.1/"
   xmlns:cc="http://creativecommons.org/ns#"
   xmlns:rdf="http://www.w3.org/1999/02/22-rdf-syntax-ns#"
   xmlns:svg="http://www.w3.org/2000/svg"
   xmlns="http://www.w3.org/2000/svg"
   xmlns:sodipodi="http://sodipodi.sourceforge.net/DTD/sodipodi-0.dtd"
   xmlns:inkscape="http://www.inkscape.org/namespaces/inkscape"
   width="27.012304mm"
   height="25.288378mm"
   viewBox="0 0 95.712889 89.604488"
   id="svg7306"
   version="1.1"
   inkscape:version="0.91 r13725"
   style="enable-background:new"
   sodipodi:docname="superglobale.svg">
  <defs
     id="defs7308">
    <filter
       inkscape:collect="always"
       style="color-interpolation-filters:sRGB"
       id="filter7879">
      <feBlend
         inkscape:collect="always"
         mode="lighten"
         in2="BackgroundImage"
         id="feBlend7881" />
    </filter>
  </defs>
  <sodipodi:namedview
     id="base"
     pagecolor="#ffffff"
     bordercolor="#666666"
     borderopacity="1.0"
     inkscape:pageopacity="0.0"
     inkscape:pageshadow="2"
     inkscape:zoom="0.77109375"
     inkscape:cx="30.993847"
     inkscape:cy="-14.903805"
     inkscape:document-units="px"
     inkscape:current-layer="layer1"
     showgrid="false"
     fit-margin-top="0"
     fit-margin-left="0"
     fit-margin-right="0"
     fit-margin-bottom="0"
     inkscape:window-width="1360"
     inkscape:window-height="681"
     inkscape:window-x="0"
     inkscape:window-y="24"
     inkscape:window-maximized="1" />
  <metadata
     id="metadata7311">
    <rdf:RDF>
      <cc:Work
         rdf:about="">
        <dc:format>image/svg+xml</dc:format>
        <dc:type
           rdf:resource="http://purl.org/dc/dcmitype/StillImage" />
        <dc:title></dc:title>
      </cc:Work>
    </rdf:RDF>
  </metadata>
  <g
     inkscape:label="Calque 1"
     inkscape:groupmode="layer"
     id="layer1"
     style="filter:url(#filter7879)"
     transform="translate(-47.673833,-427.85391)">
    <g
       style="font-style:normal;font-variant:normal;font-weight:normal;font-stretch:normal;font-size:90px;line-height:125%;font-family:OpenSymbol;-inkscape-font-specification:OpenSymbol;letter-spacing:0px;word-spacing:0px;fill:#ffffff;fill-opacity:1;stroke:none;stroke-width:1px;stroke-linecap:butt;stroke-linejoin:miter;stroke-opacity:1"
       id="flowRoot7854">
      <path
         d="m 70.613281,509.46035 -4.394531,0 -0.04394,-13.22753 q -4.614258,-0.0879 -9.228516,-1.05469 -4.614258,-1.01074 -9.272461,-2.98828 l 0,-7.91016 q 4.482422,2.8125 9.052734,4.2627 4.614258,1.40625 9.492188,1.45019 l 0,-20.03906 q -9.711914,-1.58203 -14.150391,-5.36133 -4.394531,-3.7793 -4.394531,-10.37109 0,-7.16309 4.790039,-11.29395 4.790039,-4.13086 13.754883,-4.74609 l 0,-10.32715 4.394531,0 0,10.19531 q 4.086914,0.17578 7.910156,0.87891 3.823243,0.65918 7.470704,1.8457 l 0,7.69043 q -3.647461,-1.8457 -7.514649,-2.85644 -3.823242,-1.01075 -7.866211,-1.18653 l 0,18.76465 q 9.975586,1.53809 14.677735,5.49316 4.702148,3.95508 4.702148,10.81055 0,7.42676 -5.009766,11.7334 -4.96582,4.26269 -14.370117,4.92187 l 0,13.31543 z m -4.394531,-47.06543 0,-18.01757 q -5.097656,0.57129 -7.77832,2.90039 -2.680664,2.3291 -2.680664,6.19629 0,3.77929 2.460937,5.88867 2.504883,2.10937 7.998047,3.03222 z m 4.394531,8.4375 0,19.02832 q 5.581055,-0.74707 8.393555,-3.16406 2.856445,-2.41699 2.856445,-6.37207 0,-3.86719 -2.724609,-6.15234 -2.680664,-2.28516 -8.525391,-3.33985 z"
         style="fill:#ffffff;fill-opacity:1"
         id="path7863"
         inkscape:connector-curvature="0" />
      <path
         d="m 143.38672,511.17422 0,6.28418 -46.757814,0 0,-6.28418 46.757814,0 z"
         style="fill:#ffffff;fill-opacity:1"
         id="path7865"
         inkscape:connector-curvature="0" />
    </g>
  </g>
</svg>
