<?xml version="1.0" encoding="UTF-8" standalone="no"?>
<svg
   xmlns:dc="http://purl.org/dc/elements/1.1/"
   xmlns:cc="http://creativecommons.org/ns#"
   xmlns:rdf="http://www.w3.org/1999/02/22-rdf-syntax-ns#"
   xmlns:svg="http://www.w3.org/2000/svg"
   xmlns="http://www.w3.org/2000/svg"
   version="1.1"
   id="svg6703"
   viewBox="0 0 42.319341 81.606446"
   height="23.031153mm"
   width="11.943459mm">
  <defs
     id="defs6705" />
  <metadata
     id="metadata6708">
    <rdf:RDF>
      <cc:Work
         rdf:about="">
        <dc:format>image/svg+xml</dc:format>
        <dc:type
           rdf:resource="http://purl.org/dc/dcmitype/StillImage" />
        <dc:title></dc:title>
      </cc:Work>
    </rdf:RDF>
  </metadata>
  <g
     transform="translate(-173.46879,-337.07461)"
     id="layer1">
    <g
       id="flowRoot7251"
       style="font-style:normal;font-variant:normal;font-weight:normal;font-stretch:normal;font-size:90px;line-height:125%;font-family:OpenSymbol;-inkscape-font-specification:OpenSymbol;letter-spacing:0px;word-spacing:0px;fill:#000000;fill-opacity:1;stroke:none;stroke-width:1px;stroke-linecap:butt;stroke-linejoin:miter;stroke-opacity:1">
      <path
         id="path7260"
         style="fill:#ffffff;fill-opacity:1"
         d="m 196.4082,418.68106 -4.39453,0 -0.0439,-13.22754 q -4.61426,-0.0879 -9.22852,-1.05469 -4.61426,-1.01074 -9.27246,-2.98828 l 0,-7.91016 q 4.48242,2.8125 9.05273,4.2627 4.61426,1.40625 9.49219,1.45019 l 0,-20.03906 q -9.71191,-1.58203 -14.15039,-5.36133 -4.39453,-3.77929 -4.39453,-10.37109 0,-7.16309 4.79004,-11.29395 4.79004,-4.13086 13.75488,-4.74609 l 0,-10.32715 4.39453,0 0,10.19531 q 4.08692,0.17579 7.91016,0.87891 3.82324,0.65918 7.4707,1.8457 l 0,7.69043 q -3.64746,-1.8457 -7.51465,-2.85644 -3.82324,-1.01074 -7.86621,-1.18653 l 0,18.76465 q 9.97559,1.53809 14.67774,5.49317 4.70215,3.95508 4.70215,10.81054 0,7.42676 -5.00977,11.7334 -4.96582,4.2627 -14.37012,4.92188 l 0,13.31543 z m -4.39453,-47.06543 0,-18.01758 q -5.09765,0.57129 -7.77832,2.90039 -2.68066,2.3291 -2.68066,6.19629 0,3.7793 2.46093,5.88867 2.50489,2.10938 7.99805,3.03223 z m 4.39453,8.4375 0,19.02832 q 5.58106,-0.74707 8.39356,-3.16406 2.85644,-2.417 2.85644,-6.37207 0,-3.86719 -2.72461,-6.15235 -2.68066,-2.28515 -8.52539,-3.33984 z" />
    </g>
  </g>
</svg>
